<svg width="44" height="44" viewBox="0 0 44 44" fill="none" xmlns="http://www.w3.org/2000/svg">
<path d="M27.1186 19.7541L20.394 15.8821C19.9991 15.6548 19.5515 15.5353 19.0959 15.5356C18.6403 15.536 18.1928 15.6561 17.7983 15.884C17.4038 16.1119 17.0762 16.4395 16.8483 16.834C16.6204 17.2285 16.5003 17.676 16.5 18.1316V25.8719C16.4945 26.7996 16.9895 27.6576 17.7943 28.1159C18.1889 28.3464 18.6376 28.4682 19.0945 28.4689C19.5515 28.4695 20.0005 28.349 20.3958 28.1196L27.1186 24.2476C27.5136 24.0205 27.8416 23.6934 28.0698 23.2991C28.2979 22.9048 28.418 22.4573 28.418 22.0018C28.418 21.5462 28.2979 21.0987 28.0698 20.7044C27.8416 20.3101 27.5136 19.983 27.1186 19.7559V19.7541ZM26.202 22.6544L19.481 26.5283C19.3645 26.5966 19.2319 26.6326 19.0969 26.6326C18.9618 26.6326 18.8293 26.5966 18.7128 26.5283C18.5962 26.4623 18.4995 26.3662 18.4328 26.2501C18.366 26.1341 18.3317 26.0022 18.3333 25.8683V18.1316C18.332 17.998 18.3665 17.8665 18.4333 17.7507C18.5 17.635 18.5965 17.5392 18.7128 17.4734C18.8282 17.4032 18.9608 17.366 19.096 17.366C19.2311 17.366 19.3637 17.4032 19.4791 17.4734L26.202 21.3473C26.3179 21.4127 26.4144 21.5078 26.4815 21.6228C26.5486 21.7378 26.584 21.8686 26.584 22.0018C26.584 22.1349 26.5486 22.2657 26.4815 22.3807C26.4144 22.4957 26.3179 22.5889 26.202 22.6544ZM34.8333 7.33325H9.16663C7.70838 7.33471 6.31028 7.91464 5.27915 8.94577C4.24801 9.97691 3.66808 11.375 3.66663 12.8333V31.1666C3.66808 32.6248 4.24801 34.0229 5.27915 35.0541C6.31028 36.0852 7.70838 36.6651 9.16663 36.6666H34.8333C36.2915 36.6651 37.6896 36.0852 38.7208 35.0541C39.7519 34.0229 40.3318 32.6248 40.3333 31.1666V12.8333C40.3318 11.375 39.7519 9.97691 38.7208 8.94577C37.6896 7.91464 36.2915 7.33471 34.8333 7.33325ZM38.5 31.1666C38.4985 32.1386 38.1117 33.0704 37.4244 33.7577C36.7371 34.445 35.8053 34.8318 34.8333 34.8333H9.16663C8.19461 34.8318 7.26283 34.445 6.57551 33.7577C5.88819 33.0704 5.50141 32.1386 5.49996 31.1666V12.8333C5.50141 11.8612 5.88819 10.9295 6.57551 10.2421C7.26283 9.55482 8.19461 9.16804 9.16663 9.16659H34.8333C35.8053 9.16804 36.7371 9.55482 37.4244 10.2421C38.1117 10.9295 38.4985 11.8612 38.5 12.8333V31.1666Z" fill="#5C686D"/>
</svg>
