<svg width="164" height="44" viewBox="0 0 164 44" fill="none" xmlns="http://www.w3.org/2000/svg">
<path d="M38.5 14.6667V29.3333C38.5 31.7645 37.5342 34.0961 35.8151 35.8151C34.0961 37.5342 31.7645 38.5 29.3333 38.5H14.6667C12.2355 38.5 9.90394 37.5342 8.18485 35.8151C6.46577 34.0961 5.5 31.7645 5.5 29.3333V14.6667C5.5 12.2355 6.46577 9.90394 8.18485 8.18485C9.90394 6.46577 12.2355 5.5 14.6667 5.5H29.3333C31.7645 5.5 34.0961 6.46577 35.8151 8.18485C37.5342 9.90394 38.5 12.2355 38.5 14.6667Z" stroke="#5C686D" stroke-width="1.5" stroke-linecap="round" stroke-linejoin="round"/>
<path d="M20.1667 38.5V22C20.1667 17.9887 21.0833 14.6667 27.5 14.6667M16.5 23.8333H27.5" stroke="#5C686D" stroke-width="1.5" stroke-linecap="round" stroke-linejoin="round"/>
<path d="M93.8011 38.3845H70.1988C68.9832 38.3845 67.8174 37.9016 66.9579 37.0421C66.0984 36.1825 65.6155 35.0168 65.6155 33.8012V10.1988C65.6155 8.98327 66.0984 7.81748 66.9579 6.95794C67.8174 6.09839 68.9832 5.61551 70.1988 5.61551H93.8011C95.0167 5.61551 96.1825 6.09839 97.0421 6.95794C97.9016 7.81748 98.3845 8.98327 98.3845 10.1988V33.8012C98.3845 35.0168 97.9016 36.1825 97.0421 37.0421C96.1825 37.9016 95.0167 38.3845 93.8011 38.3845ZM70.1988 7.44884C69.4695 7.44884 68.77 7.73857 68.2543 8.2543C67.7385 8.77002 67.4488 9.4695 67.4488 10.1988V33.8012C67.4488 34.5305 67.7385 35.23 68.2543 35.7457C68.77 36.2614 69.4695 36.5512 70.1988 36.5512H93.8011C94.5305 36.5512 95.23 36.2614 95.7457 35.7457C96.2614 35.23 96.5511 34.5305 96.5511 33.8012V10.1988C96.5511 9.4695 96.2614 8.77002 95.7457 8.2543C95.23 7.73857 94.5305 7.44884 93.8011 7.44884H70.1988Z" fill="#5C686D"/>
<path d="M82 30.4223C80.3341 30.4205 78.7062 29.9249 77.3221 28.998C75.9379 28.0712 74.8596 26.7548 74.2234 25.2152C73.5873 23.6756 73.4219 21.982 73.7481 20.3484C74.0743 18.7148 74.8775 17.2147 76.0562 16.0375C77.2349 14.8604 78.7362 14.0591 80.3702 13.735C82.0041 13.4109 83.6976 13.5785 85.2363 14.2167C86.7751 14.8548 88.0901 15.9349 89.0151 17.3202C89.9401 18.7056 90.4337 20.3342 90.4333 22C90.4304 24.2348 89.5406 26.377 87.9593 27.9562C86.3781 29.5353 84.2347 30.4223 82 30.4223ZM82 15.4C80.6972 15.4018 79.4242 15.7897 78.3417 16.5146C77.2593 17.2395 76.416 18.2689 75.9182 19.4729C75.4205 20.6768 75.2908 22.0012 75.5454 23.2789C75.8 24.5565 76.4275 25.7301 77.3487 26.6513C78.2699 27.5724 79.4434 28.2 80.7211 28.4546C81.9987 28.7092 83.3232 28.5794 84.5271 28.0817C85.731 27.584 86.7605 26.7407 87.4854 25.6582C88.2103 24.5758 88.5982 23.3028 88.6 22C88.6 20.2496 87.9046 18.5708 86.6669 17.3331C85.4291 16.0954 83.7504 15.4 82 15.4Z" fill="#5C686D"/>
<path d="M91.5333 14.4925C92.6218 14.4925 93.5042 13.6101 93.5042 12.5217C93.5042 11.4332 92.6218 10.5508 91.5333 10.5508C90.4449 10.5508 89.5625 11.4332 89.5625 12.5217C89.5625 13.6101 90.4449 14.4925 91.5333 14.4925Z" fill="#5C686D"/>
<path d="M147.119 19.7542L140.394 15.8822C139.999 15.6549 139.551 15.5354 139.096 15.5357C138.64 15.5361 138.193 15.6562 137.798 15.8841C137.404 16.112 137.076 16.4396 136.848 16.8341C136.62 17.2286 136.5 17.6761 136.5 18.1317V25.872C136.494 26.7997 136.989 27.6577 137.794 28.116C138.189 28.3465 138.638 28.4683 139.095 28.469C139.552 28.4696 140.001 28.3491 140.396 28.1197L147.119 24.2477C147.514 24.0206 147.842 23.6935 148.07 23.2992C148.298 22.9049 148.418 22.4574 148.418 22.0018C148.418 21.5463 148.298 21.0988 148.07 20.7045C147.842 20.3102 147.514 19.9831 147.119 19.756V19.7542ZM146.202 22.6545L139.481 26.5283C139.364 26.5967 139.232 26.6327 139.097 26.6327C138.962 26.6327 138.829 26.5967 138.713 26.5283C138.596 26.4624 138.5 26.3663 138.433 26.2502C138.366 26.1341 138.332 26.0023 138.333 25.8683V18.1317C138.332 17.9981 138.367 17.8666 138.433 17.7508C138.5 17.6351 138.597 17.5393 138.713 17.4735C138.828 17.4032 138.961 17.3661 139.096 17.3661C139.231 17.3661 139.364 17.4032 139.479 17.4735L146.202 21.3473C146.318 21.4128 146.414 21.5079 146.481 21.6229C146.549 21.7379 146.584 21.8687 146.584 22.0018C146.584 22.135 146.549 22.2658 146.481 22.3808C146.414 22.4958 146.318 22.589 146.202 22.6545ZM154.833 7.33334H129.167C127.708 7.3348 126.31 7.91473 125.279 8.94586C124.248 9.977 123.668 11.3751 123.667 12.8333V31.1667C123.668 32.6249 124.248 34.023 125.279 35.0542C126.31 36.0853 127.708 36.6652 129.167 36.6667H154.833C156.292 36.6652 157.69 36.0853 158.721 35.0542C159.752 34.023 160.332 32.6249 160.333 31.1667V12.8333C160.332 11.3751 159.752 9.977 158.721 8.94586C157.69 7.91473 156.292 7.3348 154.833 7.33334ZM158.5 31.1667C158.499 32.1387 158.112 33.0705 157.424 33.7578C156.737 34.4451 155.805 34.8319 154.833 34.8333H129.167C128.195 34.8319 127.263 34.4451 126.576 33.7578C125.888 33.0705 125.501 32.1387 125.5 31.1667V12.8333C125.501 11.8613 125.888 10.9295 126.576 10.2422C127.263 9.55491 128.195 9.16813 129.167 9.16668H154.833C155.805 9.16813 156.737 9.55491 157.424 10.2422C158.112 10.9295 158.499 11.8613 158.5 12.8333V31.1667Z" fill="#5C686D"/>
</svg>
